<?xml version="1.0" standalone="no"?>
<!DOCTYPE svg PUBLIC "-//W3C//DTD SVG 20010904//EN"
 "http://www.w3.org/TR/2001/REC-SVG-20010904/DTD/svg10.dtd">
<svg version="1.0" xmlns="http://www.w3.org/2000/svg"
 width="500.000000pt" height="500.000000pt" viewBox="0 0 500.000000 500.000000"
 preserveAspectRatio="xMidYMid meet">

<g transform="translate(0.000000,500.000000) scale(0.100000,-0.100000)"
fill="#000000" stroke="none">
<path d="M2491 3723 c-1 -7 -10 -22 -21 -33 -19 -19 -19 -21 -2 -49 16 -28 15
-34 -12 -146 -36 -147 -55 -197 -73 -191 -18 7 -17 -9 2 -24 14 -11 13 -14 -3
-26 -14 -10 -21 -30 -25 -80 -5 -69 -21 -101 -36 -75 -6 9 -11 -4 -16 -40 -7
-48 -9 -51 -21 -34 -11 14 -14 15 -14 4 0 -8 -13 -25 -30 -37 -40 -30 -38 -16
3 28 l34 35 -19 30 c-10 17 -33 61 -52 99 -33 67 -33 68 -39 37 -4 -21 -27
-51 -63 -86 -54 -51 -56 -55 -50 -92 15 -87 18 -125 8 -119 -15 9 -62 -66 -56
-90 3 -12 -3 -29 -16 -45 -18 -20 -21 -21 -15 -4 15 40 15 60 1 78 -13 17 -16
17 -46 2 -31 -16 -32 -17 -26 -73 7 -74 -10 -123 -46 -136 -24 -9 -32 -6 -59
20 -25 23 -29 35 -25 58 6 28 5 28 -44 -18 -27 -25 -53 -46 -58 -46 -4 0 -12
11 -18 25 -9 25 -13 22 -148 -113 -133 -134 -138 -141 -129 -168 6 -18 29 -43
64 -66 58 -39 540 -288 524 -270 -5 6 -109 67 -230 136 -250 142 -301 176
-318 213 -10 23 -8 28 15 48 l27 23 39 -36 c21 -21 153 -102 293 -181 327
-186 424 -246 477 -295 62 -57 131 -167 163 -260 16 -44 29 -73 29 -63 0 35
-42 143 -82 211 -81 137 -146 187 -568 426 -195 111 -202 117 -223 182 -26 84
-23 118 16 156 40 38 47 40 47 8 0 -33 28 -53 228 -166 382 -214 460 -268 529
-368 49 -71 73 -130 74 -185 2 -86 16 -95 20 -12 6 110 45 192 136 285 38 39
66 70 62 70 -13 0 -86 -58 -112 -90 -35 -41 -87 -143 -87 -170 0 -35 -15 -22
-33 30 -35 99 -117 184 -252 265 -16 9 -17 21 -11 87 l8 76 50 4 c27 1 52 -1
55 -5 3 -5 2 -47 -2 -93 l-7 -84 56 0 55 0 3 93 3 92 96 3 c112 3 109 7 109
-110 0 -65 1 -68 24 -68 23 0 23 0 18 91 l-5 90 44 -3 44 -3 3 -62 c4 -80 22
-83 22 -4 0 87 -3 91 -66 91 l-54 0 0 49 c0 27 -3 56 -6 65 -7 19 17 30 50 22
19 -5 25 -15 31 -52 8 -56 14 -74 26 -74 5 0 6 21 3 48 -11 95 -9 92 -64 92
-48 0 -50 1 -50 28 0 15 -3 58 -7 95 l-6 68 33 -3 c24 -2 34 -8 36 -23 1 -11
5 -50 9 -87 4 -38 11 -68 17 -68 5 0 7 12 4 28 -8 33 -18 144 -22 235 -1 38
-5 71 -8 75 -3 3 -6 20 -6 38 0 33 -28 110 -31 84 -1 -8 -3 -25 -4 -37 -1 -13
2 -23 7 -23 5 0 8 -15 6 -32 -2 -21 3 -38 12 -45 13 -10 10 -12 -16 -13 l-31
0 -12 103 c-7 56 -16 120 -21 142 -7 34 -8 36 -8 10 0 -16 3 -55 7 -86 6 -47
4 -61 -11 -79 -10 -12 -18 -18 -19 -14 -1 5 -3 43 -5 84 -4 87 -26 116 -76
106 -31 -6 -33 -4 -18 25 14 24 31 24 64 -2 21 -17 26 -18 26 -5 0 8 9 20 20
26 11 6 20 15 20 21 0 6 -9 8 -20 4 -16 -5 -20 -2 -21 17 -1 17 -3 18 -6 6 -2
-10 -9 -18 -15 -18 -6 0 -6 -6 2 -15 10 -12 9 -15 -6 -15 -11 0 -23 4 -29 8
-12 8 -16 264 -5 257 5 -3 7 17 7 44 -2 35 3 55 16 69 18 20 18 20 -1 26 -10
4 -24 16 -30 29 -6 12 -11 16 -11 10z m41 -560 c9 -10 19 -29 23 -41 6 -22 5
-23 -16 -17 -22 7 -22 7 -6 -9 25 -26 39 -55 31 -67 -4 -7 -16 -1 -31 15 -13
15 -29 23 -36 19 -8 -5 -8 -8 1 -11 7 -2 12 -12 12 -22 0 -10 6 -21 13 -23 9
-4 8 -8 -3 -16 -13 -9 -13 -11 1 -11 13 0 15 -9 11 -49 -2 -30 0 -51 7 -55 24
-16 8 -26 -40 -26 l-50 0 6 143 c3 78 8 152 11 165 5 27 44 30 66 5z m-94 -52
c3 -8 -1 -12 -9 -9 -7 2 -15 10 -17 17 -3 8 1 12 9 9 7 -2 15 -10 17 -17z
m242 -186 c0 -19 5 -35 10 -35 6 0 10 -9 10 -21 0 -16 -5 -20 -27 -17 -26 3
-28 7 -31 56 -3 47 -1 52 17 52 17 0 21 -6 21 -35z m-336 2 c17 -13 17 -15 2
-45 -15 -28 -15 -46 -6 -133 5 -56 12 -105 16 -110 3 -5 -10 -9 -28 -10 -30
-1 -31 -2 -8 -8 30 -8 39 -56 20 -102 -12 -28 -14 -29 -87 -29 -47 0 -72 4
-68 10 3 6 12 10 19 10 8 0 18 20 23 48 6 26 14 55 18 65 6 14 2 17 -19 17
-14 0 -26 5 -26 11 0 6 8 8 19 4 21 -6 28 21 37 140 9 132 13 142 55 144 8 1
23 -5 33 -12z m281 -67 c3 -5 -1 -10 -10 -10 -9 0 -13 5 -10 10 3 6 8 10 10
10 2 0 7 -4 10 -10z m-198 -16 c-3 -3 -12 -4 -19 -1 -8 3 -5 6 6 6 11 1 17 -2
13 -5z m123 -14 c0 -5 -22 -10 -50 -10 -27 0 -50 5 -50 10 0 6 23 10 50 10 28
0 50 -4 50 -10z m0 -89 c0 -38 2 -75 5 -83 4 -10 -11 -12 -75 -10 -50 2 -78 7
-74 13 3 6 12 8 20 5 11 -4 14 8 14 63 0 37 3 71 7 74 3 4 28 7 55 7 l48 0 0
-69z m-772 -86 c21 -23 32 -45 32 -65 0 -16 -3 -30 -7 -30 -13 0 -103 62 -103
71 0 13 31 59 40 59 4 0 21 -16 38 -35z m760 -21 c30 -6 31 -9 34 -63 3 -51 5
-56 28 -59 100 -14 -79 -24 -223 -13 -23 2 8 21 34 21 29 0 29 1 29 54 0 49 2
55 23 59 37 7 43 7 75 1z m-974 -119 c7 -27 17 -58 21 -68 6 -14 -3 -11 -38
12 -25 17 -47 38 -51 46 -3 8 7 29 21 46 15 18 28 28 30 23 2 -5 9 -31 17 -59z"/>
<path d="M2492 2910 c0 -14 2 -19 5 -12 2 6 2 18 0 25 -3 6 -5 1 -5 -13z"/>
<path d="M2291 2854 c0 -11 3 -14 6 -6 3 7 2 16 -1 19 -3 4 -6 -2 -5 -13z"/>
<path d="M2282 2720 c0 -14 2 -19 5 -12 2 6 2 18 0 25 -3 6 -5 1 -5 -13z"/>
<path d="M2288 2580 c-7 -24 -3 -38 8 -28 3 4 4 17 2 30 l-3 23 -7 -25z"/>
<path d="M2497 2763 c-11 -10 -8 -53 3 -53 6 0 10 14 10 30 0 31 -2 35 -13 23z"/>
<path d="M2512 2580 c0 -19 2 -27 5 -17 2 9 2 25 0 35 -3 9 -5 1 -5 -18z"/>
<path d="M2542 3425 c0 -11 4 -33 8 -50 7 -27 8 -27 8 -5 0 14 -4 36 -8 50 -6
20 -8 21 -8 5z"/>
<path d="M2170 3269 c0 -5 5 -7 10 -4 6 3 10 8 10 11 0 2 -4 4 -10 4 -5 0 -10
-5 -10 -11z"/>
<path d="M3056 2895 c11 -27 -23 -62 -141 -146 -117 -83 -147 -109 -127 -109
17 0 243 154 271 184 31 33 41 33 74 -2 25 -26 26 -29 12 -49 -9 -12 -73 -62
-143 -112 -145 -102 -200 -146 -191 -155 7 -8 328 208 357 241 l23 26 35 -34
c19 -18 34 -40 34 -49 0 -27 -67 -80 -325 -255 -104 -71 -183 -134 -152 -122
20 8 276 169 409 258 47 32 93 68 101 80 l15 21 22 -22 c19 -19 22 -30 18 -79
-2 -31 -14 -77 -25 -103 -20 -43 -37 -57 -280 -219 -283 -189 -381 -273 -437
-373 -34 -60 -77 -173 -75 -198 0 -7 9 11 19 39 33 93 83 176 148 244 67 72
104 97 613 427 90 59 128 89 135 109 l10 28 27 -27 c56 -56 37 -81 -150 -198
-174 -109 -392 -254 -389 -258 4 -3 149 76 241 132 39 23 125 75 193 116 117
70 182 125 182 154 0 25 -472 466 -499 466 -5 0 -8 -7 -5 -15z m350 -330 c23
-36 11 -70 -38 -105 -23 -17 -43 -28 -45 -26 -3 2 2 17 11 34 8 16 20 50 27
75 13 53 22 58 45 22z"/>
<path d="M2670 2735 c0 -14 4 -25 9 -25 4 0 6 11 3 25 -2 14 -6 25 -8 25 -2 0
-4 -11 -4 -25z"/>
<path d="M2476 2444 c-20 -20 -21 -35 -1 -27 29 11 55 -26 55 -79 0 -41 3 -48
20 -48 17 0 20 6 19 43 -1 54 -7 69 -46 101 -29 24 -33 25 -47 10z"/>
<path d="M1320 2356 c-15 -17 -21 -33 -18 -49 3 -16 -1 -28 -14 -36 -12 -8
-18 -23 -18 -50 0 -32 6 -44 35 -70 41 -36 226 -128 335 -167 82 -29 282 -85
287 -80 2 1 -57 24 -129 50 -166 60 -356 145 -425 191 -55 36 -87 83 -77 109
9 22 15 21 75 -20 57 -39 210 -114 319 -157 120 -48 233 -88 236 -84 2 2 -38
23 -88 46 -247 115 -424 206 -460 239 -34 31 -39 41 -36 69 2 18 3 33 3 33 -1
0 -12 -11 -25 -24z"/>
<path d="M3590 2354 c0 -57 -55 -94 -450 -302 -159 -84 -150 -89 25 -14 220
94 366 173 428 231 42 40 46 59 17 92 l-19 24 -1 -31z"/>
<path d="M3638 2259 c4 -25 -2 -37 -40 -72 -57 -55 -193 -129 -400 -218 -92
-40 -166 -74 -165 -76 2 -1 62 17 133 41 301 101 504 219 504 294 0 16 -8 36
-18 45 -18 16 -18 15 -14 -14z"/>
<path d="M3651 2119 c-30 -91 -190 -176 -581 -309 -177 -60 -218 -85 -345
-216 -112 -114 -156 -144 -214 -144 -62 0 -106 29 -203 133 -129 139 -184 169
-438 242 -216 62 -338 107 -450 167 -91 48 -116 70 -131 116 l-12 35 -13 -24
c-18 -32 -17 -113 1 -149 21 -40 87 -92 173 -135 136 -68 219 -94 513 -160 80
-18 165 -43 190 -55 24 -13 82 -63 129 -111 99 -103 154 -133 241 -133 96 1
154 36 278 169 69 73 104 90 288 139 194 52 298 88 405 141 188 95 254 191
199 294 l-18 34 -12 -34z"/>
<path d="M2230 1944 c0 -5 16 -26 36 -45 20 -18 47 -53 61 -76 31 -53 40 -56
14 -5 -22 42 -110 143 -111 126z"/>
<path d="M2707 1898 c-42 -52 -97 -138 -97 -152 0 -6 16 14 36 44 19 30 53 73
75 95 21 23 39 44 39 48 0 18 -22 3 -53 -35z"/>
<path d="M2239 1853 c64 -74 89 -95 52 -45 -29 39 -62 75 -91 97 -13 11 4 -13
39 -52z"/>
<path d="M2157 1849 c72 -62 159 -146 198 -192 43 -50 46 -44 4 9 -72 92 -216
224 -244 224 -3 0 15 -19 42 -41z"/>
<path d="M2734 1836 c-27 -29 -57 -68 -67 -87 -18 -33 -18 -33 15 6 18 22 53
61 77 88 24 26 39 47 33 47 -5 0 -32 -24 -58 -54z"/>
<path d="M2835 1850 c-54 -38 -112 -94 -161 -155 -62 -79 -71 -95 -20 -38 26
29 89 91 139 138 51 46 90 84 87 84 -3 0 -23 -13 -45 -29z"/>
<path d="M2090 1827 c0 -2 37 -33 83 -67 45 -35 106 -88 136 -119 30 -31 45
-42 33 -26 -29 43 -80 95 -132 136 -48 38 -120 84 -120 76z"/>
<path d="M2835 1774 c-68 -49 -140 -120 -177 -173 -24 -34 -11 -24 53 41 46
46 107 103 134 126 62 51 57 54 -10 6z"/>
<path d="M2366 1757 c3 -10 9 -15 12 -12 3 3 0 11 -7 18 -10 9 -11 8 -5 -6z"/>
<path d="M2586 1693 c-6 -14 -5 -15 5 -6 7 7 10 15 7 18 -3 3 -9 -2 -12 -12z"/>
</g>
</svg>
